<?xml version="1.0" encoding="UTF-8" standalone="no"?>
<svg
   viewBox="0 0 64 64"
   version="1.1"
   id="svg26"
   sodipodi:docname="ico-ssh--active.svg"
   inkscape:version="1.2.2 (b0a8486541, 2022-12-01)"
   xmlns:inkscape="http://www.inkscape.org/namespaces/inkscape"
   xmlns:sodipodi="http://sodipodi.sourceforge.net/DTD/sodipodi-0.dtd"
   xmlns="http://www.w3.org/2000/svg"
   xmlns:svg="http://www.w3.org/2000/svg">
  <defs
     id="defs30" />
  <sodipodi:namedview
     id="namedview28"
     pagecolor="#ffffff"
     bordercolor="#666666"
     borderopacity="1.0"
     inkscape:showpageshadow="2"
     inkscape:pageopacity="0.0"
     inkscape:pagecheckerboard="0"
     inkscape:deskcolor="#d1d1d1"
     showgrid="false"
     inkscape:zoom="6.546875"
     inkscape:cx="90.195704"
     inkscape:cy="35.28401"
     inkscape:window-width="1920"
     inkscape:window-height="1008"
     inkscape:window-x="0"
     inkscape:window-y="216"
     inkscape:window-maximized="1"
     inkscape:current-layer="svg26" />
  <path
     class="cls-1"
     d="m 29.968861,7.8094604 c 5.538775,0.08793 10.388105,1.926099 14.433636,5.7517246 3.241203,3.065014 5.238908,6.815866 6.033869,11.204248 0.218925,1.194086 0.318129,2.407032 0.296258,3.620814 -0.09921,4.934522 -1.72308,9.301564 -4.966244,13.03325 -3.143464,3.616982 -7.090367,5.912829 -11.795299,6.777233 C 27.625679,49.362532 21.868746,47.946127 16.773029,43.954978 15.71448,43.125949 14.796021,42.143899 13.838851,41.205127 11.778219,39.18412 9.7200338,37.160622 7.6642829,35.134632 5.7994551,33.302033 3.93422,31.469874 2.0685686,29.638132 1.2023382,28.784303 1.2016626,27.599573 2.0674986,26.7458 c 1.9160544,-1.889428 3.835411,-3.775495 5.7580711,-5.658203 1.8051265,-1.772231 3.6012893,-3.553808 5.4204053,-5.311608 1.207705,-1.166987 2.350589,-2.403393 3.675298,-3.447142 2.639476,-2.079683 5.605873,-3.4481536 8.899191,-4.1054026 1.365642,-0.27529 2.755274,-0.41395 4.148377,-0.414063 z M 45.978699,28.20776 c -0.02142,-0.885958 -0.09356,-1.755119 -0.258043,-2.615543 -0.807496,-4.232722 -3.031285,-7.538666 -6.627682,-9.87698 -3.46865,-2.255229 -7.280862,-2.956104 -11.346685,-2.186316 -2.925328,0.553851 -5.475835,1.868267 -7.629359,3.925168 -1.423969,1.360095 -2.819756,2.749749 -4.225845,4.128524 -1.884963,1.84837 -3.768291,3.698397 -5.649984,5.55007 -0.6500088,0.640879 -0.6471908,1.478272 -0.0022,2.116231 0.923384,0.913352 1.853296,1.820019 2.779432,2.730552 2.257957,2.219877 4.515891,4.439776 6.773816,6.659675 3.273951,3.206831 7.201396,4.705496 11.782346,4.496007 2.422985,-0.111605 4.707671,-0.75812 6.789711,-1.997919 4.89412,-2.914428 7.393942,-7.258608 7.614525,-12.929469 z m 10.093537,-0.01353 c 0.0029,-2.226527 -0.217685,-4.4313 -0.708969,-6.605993 -0.01465,-0.06651 -0.02705,-0.133137 -0.03495,-0.200437 -0.0248,-0.203818 0.04509,-0.365475 0.220953,-0.476178 0.182851,-0.115211 0.369196,-0.120513 0.547988,0.0037 0.07441,0.05637 0.143057,0.1195 0.206073,0.188148 1.866678,1.865901 3.733063,3.732115 5.599142,5.598657 0.919778,0.91989 0.917975,2.091138 -0.0039,3.013102 -1.860264,1.860331 -3.72056,3.72064 -5.580879,5.580914 -0.04847,0.04847 -0.09469,0.09695 -0.144635,0.143395 -0.183866,0.16966 -0.393208,0.204156 -0.606947,0.07666 -0.198859,-0.119046 -0.28679,-0.297725 -0.234143,-0.539985 0.196152,-0.902305 0.364348,-1.809411 0.484971,-2.725591 0.14283,-1.085267 0.237525,-2.173534 0.25466,-3.268123 0.0042,-0.262552 6.2e-4,-0.525217 6.2e-4,-0.787881 z"
     id="path196"
     sodipodi:nodetypes="csccccsccccccsccccccccccccccccsscccccssssscsss"
     style="fill:#33b5f1;stroke-width:0.0267725" />
  <path
     class="cls-2"
     d="M 41.008791,28.198199 C 40.978351,22.332516 36.16016,17.86743 30.554671,17.986971 24.991784,18.10556 20.371716,22.776396 20.56709,28.575478 c 0.178229,5.288635 4.543185,9.947505 10.392119,9.852619 5.631935,-0.09131 10.037666,-4.656165 10.049582,-10.229898 z"
     id="path198"
     style="fill:#fefefe;stroke-width:0.0267725" />
  <path
     class="cls-1"
     d="m 41.008791,28.198199 c -0.0124,5.573733 -4.417647,10.138574 -10.049582,10.229898 -5.848934,0.09469 -10.213946,-4.563984 -10.392119,-9.852642 -0.195363,-5.799059 4.424694,-10.469857 9.987558,-10.588484 5.605512,-0.119501 10.423322,4.345545 10.45412,10.211228 z"
     id="path200"
     style="fill:#33b5f1;stroke-width:0.0267725" />
  <circle cx="49" cy="49" r="12" fill="#33b5f1" stroke-width="0" />
  <path
     d="m49,39c-5.52,0-10,4.48-10,10s4.48,10,10,10,10-4.48,10-10-4.48-10-10-10Z"
     fill="#21b553"
     id="path22" />
  <path
     d="m52.42,48.23l-4.06-3.38c-.65-.54-1.64-.08-1.64.77v6.76c0,.85.99,1.31,1.64.77l4.06-3.38c.48-.4.48-1.14,0-1.54Z"
     fill="#fff"
     id="path24" />
</svg>
