<?xml version="1.0" encoding="UTF-8" standalone="no"?>
<svg
   viewBox="0 0 64 64"
   version="1.1"
   id="svg454"
   sodipodi:docname="ico-containerlaunch--stopped.svg"
   inkscape:version="1.2.2 (b0a8486541, 2022-12-01)"
   xmlns:inkscape="http://www.inkscape.org/namespaces/inkscape"
   xmlns:sodipodi="http://sodipodi.sourceforge.net/DTD/sodipodi-0.dtd"
   xmlns="http://www.w3.org/2000/svg"
   xmlns:svg="http://www.w3.org/2000/svg">
  <defs
     id="defs458" />
  <sodipodi:namedview
     id="namedview456"
     pagecolor="#ffffff"
     bordercolor="#666666"
     borderopacity="1.0"
     inkscape:showpageshadow="2"
     inkscape:pageopacity="0.0"
     inkscape:pagecheckerboard="0"
     inkscape:deskcolor="#d1d1d1"
     showgrid="false"
     inkscape:zoom="7.9999996"
     inkscape:cx="38.625002"
     inkscape:cy="44.625002"
     inkscape:window-width="1920"
     inkscape:window-height="1008"
     inkscape:window-x="0"
     inkscape:window-y="216"
     inkscape:window-maximized="1"
     inkscape:current-layer="svg454"
     inkscape:lockguides="true" />
  <g
     id="g1482"
     transform="matrix(0.14598555,5.7002388e-4,-5.7002388e-4,0.14598555,-6.594756,-4.7235683)">
    <path
       stroke="#066da5"
       stroke-width="38"
       d="m 296,226 h 42 m -92,0 h 42 m -91,0 h 42 m -91,0 h 41 m -91,0 h 42 m 8,-46 h 41 m 8,0 h 42 m 7,0 h 42 m -42.10933,-73.99979 h 42"
       id="path57"
       sodipodi:nodetypes="cccccccccccccccccc" />
    <path
       fill="#066da5"
       d="m 472,228 c 0,0 -18,-17 -55,-11 -4,-29 -35,-46 -35,-46 0,0 -29,35 -8,74 -6,3 -16,7 -31,7 H 68 c -5,19 -5,145 133,145 99,0 173,-46 208,-130 52,4 63,-39 63,-39"
       id="path59" />
    <path
       style="display:inline;fill:none;fill-rule:evenodd;stroke:#066da5;stroke-width:2.80892;stroke-linecap:butt;stroke-linejoin:miter;stroke-dasharray:none;stroke-opacity:1"
       d="m 250.20421,129.57238 0.19994,9.10965"
       id="path1331"
       inkscape:connector-type="polyline"
       inkscape:connector-curvature="0" />
    <path
       style="display:inline;fill:none;fill-rule:evenodd;stroke:#066da5;stroke-width:2.80892;stroke-linecap:butt;stroke-linejoin:miter;stroke-dasharray:none;stroke-opacity:1"
       d="m 258.53076,132.56224 0.19994,9.10965"
       id="path1331-3"
       inkscape:connector-type="polyline"
       inkscape:connector-curvature="0" />
    <path
       style="display:inline;fill:none;fill-rule:evenodd;stroke:#066da5;stroke-width:2.80892;stroke-linecap:butt;stroke-linejoin:miter;stroke-dasharray:none;stroke-opacity:1"
       d="m 266.86881,138.49593 0.19994,9.10965"
       id="path1331-6"
       inkscape:connector-type="polyline"
       inkscape:connector-curvature="0" />
    <path
       style="display:inline;fill:none;fill-rule:evenodd;stroke:#066da5;stroke-width:2.80892;stroke-linecap:butt;stroke-linejoin:miter;stroke-dasharray:none;stroke-opacity:1"
       d="m 275.16058,132.57712 0.19994,9.10965"
       id="path1331-7"
       inkscape:connector-type="polyline"
       inkscape:connector-curvature="0" />
    <path
       style="display:inline;fill:none;fill-rule:evenodd;stroke:#066da5;stroke-width:2.80892;stroke-linecap:butt;stroke-linejoin:miter;stroke-dasharray:none;stroke-opacity:1"
       d="m 283.46219,129.17971 0.19994,9.10965"
       id="path1331-62"
       inkscape:connector-type="polyline"
       inkscape:connector-curvature="0" />
  </g>
  <circle
     cx="49"
     cy="49"
     r="12"
     fill="#066da5"
     id="circle448" />
  <path
     d="M49 39C43.48 39 39 43.48 39 49C39 54.52 43.48 59 49 59C54.52 59 59 54.52 59 49C59 43.48 54.52 39 49 39Z"
     fill="#50BEFF"
     id="path450" />
  <rect
     x="45"
     y="45"
     width="8"
     height="8"
     rx="1"
     fill="white"
     id="rect452" />
</svg>
