<svg width="64" height="64" viewBox="0 0 64 64" fill="none" xmlns="http://www.w3.org/2000/svg">
<rect x="4" y="4" width="38" height="31" rx="7" fill="#14AA8C"/>
<path d="M13.4004 10.125H11.7998C10.9162 10.1251 10.2002 10.8246 10.2002 11.6875V27.3125C10.2002 28.1754 10.9162 28.8749 11.7998 28.875H13.4004V32H11.7998C9.14893 31.9999 7 29.9013 7 27.3125V11.6875C7 9.09873 9.14893 7.0001 11.7998 7H13.4004V10.125Z" fill="white"/>
<path d="M34.2002 7C36.8511 7.0001 39 9.09873 39 11.6875V27.3125C39 29.9013 36.8511 31.9999 34.2002 32H32.5996V28.875H34.2002C35.0838 28.8749 35.7998 28.1754 35.7998 27.3125V11.6875C35.7998 10.8246 35.0838 10.1251 34.2002 10.125H32.5996V7H34.2002Z" fill="white"/>
<path d="M16.5996 17.9375C17.4833 17.9375 18.2002 18.6371 18.2002 19.5C18.2002 20.3629 17.4833 21.0625 16.5996 21.0625C15.7161 21.0623 15 20.3628 15 19.5C15 18.6372 15.7161 17.9377 16.5996 17.9375Z" fill="white"/>
<path d="M23 17.9375C23.8837 17.9375 24.5996 18.6371 24.5996 19.5C24.5996 20.3629 23.8837 21.0625 23 21.0625C22.1163 21.0625 21.4004 20.3629 21.4004 19.5C21.4004 18.6371 22.1163 17.9375 23 17.9375Z" fill="white"/>
<path d="M29.4004 17.9375C30.2839 17.9377 31 18.6372 31 19.5C31 20.3628 30.2839 21.0623 29.4004 21.0625C28.5167 21.0625 27.7998 20.3629 27.7998 19.5C27.7998 18.6371 28.5167 17.9375 29.4004 17.9375Z" fill="white"/>
<path d="M48 59C54.6274 59 60 53.6274 60 47C60 40.3726 54.6274 35 48 35C41.3726 35 36 40.3726 36 47C36 53.6274 41.3726 59 48 59Z" fill="#14AA8C"/>
<path d="M48 37C42.48 37 38 41.48 38 47C38 52.52 42.48 57 48 57C53.52 57 58 52.52 58 47C58 41.48 53.52 37 48 37Z" fill="#50BEFF"/>
<path d="M51 43H45C44.4477 43 44 43.4477 44 44V50C44 50.5523 44.4477 51 45 51H51C51.5523 51 52 50.5523 52 50V44C52 43.4477 51.5523 43 51 43Z" fill="white"/>
</svg>
