<svg width="24" height="24" viewBox="0 0 24 24" fill="none" xmlns="http://www.w3.org/2000/svg">
<path d="M22 6.00043V17.9408C22 18.2048 21.8946 18.458 21.7071 18.6447C21.5195 18.8314 21.2651 18.9363 20.9999 18.9363H19.9998C19.7346 18.9363 19.4802 18.8314 19.2926 18.6447C19.1051 18.458 18.9997 18.2048 18.9997 17.9408V5.99545C18.9997 5.73144 19.1051 5.47824 19.2926 5.29156C19.4802 5.10488 19.7346 5 19.9998 5H20.9999C21.2651 5 21.5195 5.10488 21.7071 5.29156C21.8946 5.47824 22 5.73144 22 5.99545M9.23969 5.26379L2.35999 11.2365C2.24749 11.3298 2.15694 11.4465 2.09473 11.5784C2.03253 11.7104 2.00019 11.8543 2 12C1.99981 12.1458 2.03177 12.2898 2.09363 12.4219C2.15549 12.554 2.24573 12.6709 2.35799 12.7645L9.23769 18.7372C9.39106 18.8714 9.58011 18.9587 9.78213 18.9886C9.98415 19.0184 10.1905 18.9895 10.3764 18.9054C10.5624 18.8213 10.7199 18.6855 10.8302 18.5144C10.9404 18.3433 10.9986 18.1441 10.9979 17.9408H10.9989V13.959H15.9994C16.2646 13.959 16.519 13.8542 16.7066 13.6675C16.8941 13.4808 16.9995 13.2276 16.9995 12.9636V10.9727C16.9995 10.7087 16.8941 10.4555 16.7066 10.2688C16.519 10.0821 16.2646 9.97724 15.9994 9.97724H10.9989V5.99545C10.9875 5.79776 10.9205 5.60723 10.8055 5.44566C10.6905 5.28409 10.5322 5.15798 10.3485 5.08176C10.1649 5.00555 9.96348 4.98229 9.76721 5.01466C9.57095 5.04702 9.3878 5.1337 9.23869 5.26479L9.23969 5.26379Z" fill="#8f9dc9"/>
</svg>
