<svg width="64" height="64" viewBox="0 0 64 64" fill="none" xmlns="http://www.w3.org/2000/svg">
<circle cx="9.94937" cy="23.1139" r="4.44937" fill="#D9D9D9" stroke="#A5300F" stroke-width="3"/>
<circle cx="33.4937" cy="9.94937" r="4.44937" fill="#D9D9D9" stroke="#A5300F" stroke-width="3"/>
<path d="M33.6203 15.3923C33.6203 15.3923 32.481 25.1392 20.962 26.5316" stroke="#A5300F" stroke-width="3"/>
<path d="M14 22.5C14.8961 22.8798 23.1139 24.7594 23.7468 35.7721" stroke="#A5300F" stroke-width="3"/>
<rect x="16.1709" y="34.3987" width="14.8987" height="11.1013" rx="3.01899" fill="#D9D9D9" stroke="#A5300F" stroke-width="3"/>
<path d="M24.2726 37.5749C24.3524 37.3811 24.5738 37.2882 24.7677 37.3679C24.9616 37.4478 25.0546 37.6701 24.9747 37.864L23.2023 42.1677L23.1857 42.2029C23.0947 42.3724 22.8879 42.4486 22.7062 42.3738C22.5247 42.2987 22.4325 42.0991 22.4874 41.9148L22.5001 41.8786L24.2726 37.5749Z" fill="#A5300F"/>
<path d="M21.4816 37.7556C21.6307 37.6341 21.8514 37.643 21.9904 37.782C22.1293 37.921 22.1373 38.1416 22.0157 38.2908L21.9904 38.3191L20.3595 39.9499L21.9904 41.5798L22.0157 41.6091C22.1372 41.7583 22.1293 41.978 21.9904 42.1169C21.8514 42.2559 21.6307 42.2648 21.4816 42.1433L21.4532 42.1169L19.5538 40.2175C19.4061 40.0693 19.4061 39.8296 19.5538 39.6814L21.4532 37.782L21.4816 37.7556Z" fill="#A5300F"/>
<path d="M25.504 37.782C25.643 37.6433 25.8628 37.6342 26.0118 37.7556L26.0411 37.782L27.9396 39.6814C28.0875 39.8296 28.0875 40.0693 27.9396 40.2175L26.0411 42.1169L26.0118 42.1433C25.8628 42.2646 25.643 42.2556 25.504 42.1169C25.365 41.9779 25.3561 41.7573 25.4777 41.6081L25.504 41.5798L27.1339 39.949L25.504 38.3191L25.4777 38.2898C25.3563 38.1406 25.3651 37.9209 25.504 37.782Z" fill="#A5300F"/>
<path d="M48 59C54.6274 59 60 53.6274 60 47C60 40.3726 54.6274 35 48 35C41.3726 35 36 40.3726 36 47C36 53.6274 41.3726 59 48 59Z" fill="#14AA8C"/>
<path d="M48 37C42.48 37 38 41.48 38 47C38 52.52 42.48 57 48 57C53.52 57 58 52.52 58 47C58 41.48 53.52 37 48 37Z" fill="#50BEFF"/>
<path d="M51 43H45C44.4477 43 44 43.4477 44 44V50C44 50.5523 44.4477 51 45 51H51C51.5523 51 52 50.5523 52 50V44C52 43.4477 51.5523 43 51 43Z" fill="white"/>
</svg>
