<svg xmlns="http://www.w3.org/2000/svg" viewBox="0 0 64 64">
  <circle fill="#fff" cx="32" cy="32" r="32"/>
  <g>
    <path fill="#fff" d="M52.69,42.67c0,.1-.01.2-.05.29-.04.09-.09.18-.16.25-.07.07-.16.13-.25.17-.09.04-.2.06-.3.06-.16,0-.31-.03-.45-.12s-.24-.2-.3-.34c-.06-.14-.08-.3-.06-.45.03-.15.1-.29.21-.4.11-.11.25-.19.4-.22.15-.03.31-.02.46.04.15.06.27.16.36.28.09.13.13.28.13.43h0ZM53,42.67c0-.21-.05-.41-.16-.59-.11-.18-.28-.32-.47-.4-.19-.09-.41-.11-.62-.08s-.4.13-.56.28-.26.33-.3.53c-.04.2-.03.42.05.61.08.19.22.36.39.47.18.12.39.18.6.18.14,0,.28-.01.41-.06.13-.05.25-.12.35-.21.1-.09.18-.21.23-.33.05-.13.08-.26.08-.39ZM51.76,42.75h.11l.26.45h.29l-.29-.47s.08,0,.11-.02c.04-.01.07-.03.09-.06.03-.03.05-.06.06-.09.01-.04.02-.07.01-.11,0-.25-.17-.33-.47-.33h-.43v1.08h.25v-.45M51.76,42.57v-.26h.17c.09,0,.22,0,.22.12,0,.12-.06.14-.17.14h-.22"/>
    <path d="M45.83,37.15l1.33,3.55h-2.69l1.37-3.55ZM44.41,35.77l-3.06,7.57h2.16l.48-1.34h3.62l.46,1.34h2.34l-3.08-7.57h-2.92ZM38.28,43.35h2.19v-7.58h-2.19v7.58ZM23.07,35.77l-1.83,6-1.75-6h-2.37l2.5,7.58h3.16l2.52-7.58h-2.23ZM31.92,37.42h.94c1.37,0,2.25.6,2.25,2.15s-.88,2.15-2.25,2.15h-.94v-4.31ZM29.75,35.77v7.58h3.55c1.89,0,2.51-.31,3.18-1,.57-.79.84-1.75.78-2.71.04-.92-.21-1.83-.71-2.61-.81-1.06-1.98-1.27-3.72-1.27h-3.07ZM9,35.76v7.59h2.21v-5.76h1.71c.23-.02.45,0,.67.08.21.07.41.19.58.34.35.36.49.94.49,2.01v3.33h2.14v-4.19c0-2.99-1.95-3.4-3.86-3.4h-3.93ZM26.23,35.77v7.58h2.19v-7.58h-2.19Z"/>
    <path fill="#76B900" d="M14.89,20.68c1.01-1.29,2.28-2.35,3.73-3.12,1.45-.77,3.06-1.24,4.71-1.36v-1.48c-6.23.49-11.63,5.65-11.63,5.65,0,0,3.06,8.64,11.63,9.43v-1.56c-6.29-.77-8.44-7.55-8.44-7.55ZM23.33,25.12v1.43c-4.75-.83-6.07-5.66-6.07-5.66,1.64-1.6,3.78-2.61,6.07-2.87v1.57h0c-1.99-.23-3.54,1.58-3.54,1.58,0,0,.87,3.06,3.55,3.94M23.33,12.01v2.71c.18-.01.37-.03.55-.03,7.08-.23,11.7,5.68,11.7,5.68,0,0-5.3,6.3-10.82,6.3-.48,0-.95-.04-1.43-.12v1.68c.39.05.79.07,1.19.07,5.14,0,8.86-2.57,12.45-5.6.6.47,3.04,1.6,3.54,2.1-3.42,2.8-11.4,5.06-15.92,5.06-.44,0-.85-.03-1.27-.06v2.36h19.53V12.01h-19.54ZM23.33,18.03v-1.82c.18-.01.36-.02.55-.03,5.09-.16,8.44,4.28,8.44,4.28,0,0-3.61,4.9-7.48,4.9-.51,0-1.02-.08-1.51-.23v-5.52c1.98.23,2.38,1.09,3.57,3.03l2.65-2.19c-.64-.75-1.43-1.36-2.33-1.79-.9-.43-1.88-.66-2.87-.69-.34,0-.69.02-1.03.06"/>
  </g>
  <g>
    <circle cx="52" cy="52" r="12" fill="#fff" stroke-width="0" />
    <path fill="#21b553" d="M52,42c-5.5,0-10,4.5-10,10s4.5,10,10,10,10-4.5,10-10-4.5-10-10-10Z"/>
    <path fill="#fff" d="M55.4,51.2l-4.1-3.4c-.7-.5-1.6,0-1.6.8v6.8c0,.8,1,1.3,1.6.8l4.1-3.4c.5-.4.5-1.1,0-1.5Z"/>
  </g>
</svg>