<?xml version="1.0" encoding="UTF-8" standalone="no"?>
<svg
   viewBox="0 0 64 64"
   version="1.1"
   id="svg424"
   sodipodi:docname="ico-ssh--loading.svg"
   inkscape:version="1.2.2 (b0a8486541, 2022-12-01)"
   xmlns:inkscape="http://www.inkscape.org/namespaces/inkscape"
   xmlns:sodipodi="http://sodipodi.sourceforge.net/DTD/sodipodi-0.dtd"
   xmlns="http://www.w3.org/2000/svg"
   xmlns:svg="http://www.w3.org/2000/svg">
  <defs
     id="defs428" />
  <sodipodi:namedview
     id="namedview426"
     pagecolor="#ffffff"
     bordercolor="#666666"
     borderopacity="1.0"
     inkscape:showpageshadow="2"
     inkscape:pageopacity="0.0"
     inkscape:pagecheckerboard="0"
     inkscape:deskcolor="#d1d1d1"
     showgrid="false"
     inkscape:zoom="5.6568542"
     inkscape:cx="56.303378"
     inkscape:cy="13.081475"
     inkscape:window-width="1920"
     inkscape:window-height="1008"
     inkscape:window-x="0"
     inkscape:window-y="216"
     inkscape:window-maximized="1"
     inkscape:current-layer="svg424" />
  <style
     id="style400">
  @keyframes anim {
    from {
        r: 2px;
    }
    to {
      r: 6px;
    }
    to {
        r: 8px;
    }
  }
  .circle {
      animation-name: anim;
      animation-duration: 1.2s;
      animation-iteration-count: infinite;
  }
</style>
  <path
     class="cls-1"
     d="m 30.484324,6.9594916 c 5.538775,0.08793 10.388105,1.926099 14.433636,5.7517244 3.241203,3.065014 5.238908,6.815866 6.033869,11.204248 0.218925,1.194086 0.318129,2.407032 0.296258,3.620814 -0.09921,4.934522 -1.72308,9.301564 -4.966244,13.03325 -3.143464,3.616982 -7.090367,5.912829 -11.795299,6.777233 -6.345402,1.165802 -12.102335,-0.250603 -17.198052,-4.241752 -1.058549,-0.829029 -1.977008,-1.811079 -2.934178,-2.749851 -2.060632,-2.021007 -4.11882,-4.044505 -6.1745724,-6.070495 -1.864827,-1.832599 -3.730063,-3.664758 -5.595714,-5.4965 -0.8662299,-0.853829 -0.8669059,-2.038559 -0.0011,-2.892332 1.916054,-1.889428 3.835411,-3.775495 5.758071,-5.658203 1.8051274,-1.772231 3.6012934,-3.553808 5.4204094,-5.311608 1.207705,-1.166987 2.350589,-2.403393 3.675298,-3.447142 2.639476,-2.0796824 5.605873,-3.4481534 8.899191,-4.1054024 1.365642,-0.27529 2.755274,-0.41395 4.148377,-0.414063 z M 46.494162,27.357791 c -0.02142,-0.885958 -0.09356,-1.755119 -0.258043,-2.615543 -0.807496,-4.232722 -3.031285,-7.538666 -6.627682,-9.87698 -3.46865,-2.255229 -7.280862,-2.956104 -11.346685,-2.186316 -2.925328,0.553851 -5.475835,1.868267 -7.629359,3.925168 -1.423969,1.360095 -2.819756,2.749749 -4.225845,4.128524 -1.884963,1.84837 -3.768291,3.698397 -5.649985,5.55007 -0.650011,0.640879 -0.647193,1.478272 -0.0022,2.116231 0.923385,0.913352 1.853297,1.820019 2.779433,2.730552 2.257957,2.219877 4.515891,4.439776 6.773816,6.659675 3.273951,3.206831 7.201396,4.705496 11.782346,4.496007 2.422985,-0.111605 4.707671,-0.75812 6.789711,-1.997919 4.89412,-2.914428 7.393942,-7.258608 7.614525,-12.929469 z m 10.093537,-0.01353 c 0.0029,-2.226527 -0.217685,-4.4313 -0.708969,-6.605993 -0.01465,-0.06651 -0.02705,-0.133137 -0.03495,-0.200437 -0.0248,-0.203818 0.04509,-0.365475 0.220953,-0.476178 0.182851,-0.115211 0.369196,-0.120513 0.547988,0.0037 0.07441,0.05637 0.143057,0.1195 0.206073,0.188148 1.866678,1.865901 3.733063,3.732115 5.599146,5.598657 0.91977,0.91989 0.91797,2.091138 -0.004,3.013102 -1.860268,1.860331 -3.720564,3.72064 -5.580883,5.580914 -0.04847,0.04847 -0.09469,0.09695 -0.144635,0.143395 -0.183866,0.16966 -0.393208,0.204156 -0.606947,0.07666 -0.198859,-0.119046 -0.28679,-0.297725 -0.234143,-0.539985 0.196152,-0.902305 0.364348,-1.809411 0.484971,-2.725591 0.14283,-1.085267 0.237525,-2.173534 0.25466,-3.268123 0.0042,-0.262552 6.2e-4,-0.525217 6.2e-4,-0.787881 z"
     id="path196"
     sodipodi:nodetypes="csccccsccccccsccccccccccccccccsscccccssssscsss"
     style="fill:#33b5f1;stroke-width:0.0267725" />
 
  <path
     class="cls-1"
     d="m 41.524254,27.34823 c -0.0124,5.573733 -4.417647,10.138574 -10.049582,10.229898 -5.848934,0.09469 -10.213946,-4.563984 -10.392119,-9.852642 -0.195363,-5.799059 4.424694,-10.469857 9.987558,-10.588484 5.605512,-0.119501 10.423322,4.345545 10.45412,10.211228 z"
     id="path200"
     style="fill:#33b5f1;stroke-width:0.0267725" />
  <circle cx="49" cy="49" r="12" fill="#33b5f1" stroke-width="0" />
  <circle
     class="circle"
     cx="16"
     cy="16"
     r="8"
     fill="#D3FF00"
     style="transform: translate(33px, 33px)"
     id="circle422" />
</svg>
