<?xml version="1.0" encoding="UTF-8" standalone="no"?>
<svg
   viewBox="0 0 64 64"
   version="1.1"
   id="svg394"
   sodipodi:docname="ico-qdrant--idle.svg"
   inkscape:version="1.2.2 (b0a8486541, 2022-12-01)"
   xmlns:inkscape="http://www.inkscape.org/namespaces/inkscape"
   xmlns:sodipodi="http://sodipodi.sourceforge.net/DTD/sodipodi-0.dtd"
   xmlns="http://www.w3.org/2000/svg"
   xmlns:svg="http://www.w3.org/2000/svg">
  <defs
     id="defs398">
    <linearGradient
       id="paint0_linear_4688_32465"
       x1="23.1805"
       y1="38.780899"
       x2="15.4911"
       y2="38.780899"
       gradientUnits="userSpaceOnUse"
       gradientTransform="matrix(1.0503048,0,0,1.0503048,0.663758,0.7150981)">
      <stop
         stop-color="#FF3364"
         id="stop22" />
      <stop
         offset="1"
         stop-color="#C91540"
         stop-opacity="0"
         id="stop24" />
    </linearGradient>
  </defs>
  <sodipodi:namedview
     id="namedview396"
     pagecolor="#ffffff"
     bordercolor="#666666"
     borderopacity="1.0"
     inkscape:showpageshadow="2"
     inkscape:pageopacity="0.0"
     inkscape:pagecheckerboard="0"
     inkscape:deskcolor="#d1d1d1"
     showgrid="false"
     inkscape:zoom="8"
     inkscape:cx="85.3125"
     inkscape:cy="40.25"
     inkscape:window-width="1920"
     inkscape:window-height="1008"
     inkscape:window-x="0"
     inkscape:window-y="216"
     inkscape:window-maximized="1"
     inkscape:current-layer="svg394" />
  <path
     fill-rule="evenodd"
     clip-rule="evenodd"
     d="M 41.088518,54.781328 39.915642,22.445803 37.791611,13.920794 51.96904,15.42168 v 39.114927 l -8.660388,4.998295 z"
     fill="#24386c"
     id="path2"
     style="stroke-width:1.0503" />
  <path
     fill-rule="evenodd"
     clip-rule="evenodd"
     d="M 51.96778,15.419369 43.307287,20.421131 25.4353,16.500763 4.516214,25.018105 1.030954,15.419369 13.763052,8.067232 26.499048,0.7150981 39.231579,8.067232 Z"
     fill="#7589be"
     id="path4"
     style="stroke-width:1.0503" />
  <path
     fill-rule="evenodd"
     clip-rule="evenodd"
     d="m 1.030954,15.418739 8.66047,5.001762 5.020264,14.930398 L 31.662557,48.91359 26.499469,59.531541 13.763472,52.178988 1.030954,44.826854 Z"
     fill="#b2bfe8"
     id="path6"
     style="stroke-width:1.0503" />
  <path
     fill-rule="evenodd"
     clip-rule="evenodd"
     d="m 32.24243,41.068758 -5.741596,8.464407 v 9.999637 l 8.147214,-4.700745 4.197859,-6.268324"
     fill="#24386c"
     id="path8"
     style="stroke-width:1.0503" />
  <path
     fill-rule="evenodd"
     clip-rule="evenodd"
     d="m 26.50346,39.536678 -8.150681,-14.111895 1.755585,-4.677112 6.674057,-3.235885 7.864682,7.913312 z"
     fill="#7589be"
     id="path10"
     style="stroke-width:1.0503" />
  <path
     fill-rule="evenodd"
     clip-rule="evenodd"
     d="m 18.35383,25.423943 8.147109,4.700744 v 9.409156 l -7.534992,0.324229 -4.558008,-5.819949 z"
     fill="#b2bfe8"
     id="path12"
     style="stroke-width:1.0503" />
  <path
     fill-rule="evenodd"
     clip-rule="evenodd"
     d="m 26.500834,30.123216 8.147214,-4.700324 5.54477,9.232495 -6.709978,5.543929 -6.982006,-0.666524 z"
     fill="#24386c"
     id="path14"
     style="stroke-width:1.0503" />
  <path
     fill-rule="evenodd"
     clip-rule="evenodd"
     d="m 34.646683,54.831007 8.660499,4.701165 V 20.421131 l -8.4058,-4.851253 -8.401913,-4.851243 -8.405695,4.851243 -8.401909,4.851253 v 19.408477 l 8.401909,4.851253 8.405695,4.851673 8.147214,-4.70505 z m 0,-20.00316 -8.147214,4.70463 -8.14711,-4.70463 v -9.405375 l 8.14711,-4.704525 8.147214,4.704525 z"
     fill="#dc244c"
     id="path16"
     style="stroke-width:1.0503" />
  <path
     d="M 26.50472,49.536211 V 39.534998 l -8.104782,-4.664509 v 9.984618 z"
     fill="url(#paint0_linear_4688_32465)"
     id="path18"
     style="fill:url(#paint0_linear_4688_32465);stroke-width:1.0503" />
  <circle cx="49" cy="49" r="12" fill="#24386c" stroke-width="0" />
  <path
     d="m49,39c-5.52,0-10,4.48-10,10s4.48,10,10,10,10-4.48,10-10-4.48-10-10-10Z"
     fill="#50beff"
     id="path391" />
  <path
     id="idle-s"
     d="m50.44,49.24v-4.48c0-.67-.55-1.22-1.22-1.22s-1.22.55-1.22,1.22v4.88s.01.04.01.05c-.01.33.1.66.35.91l4.31,3.61c.12.09.34.25.56.25.43,0,.77-.35.77-.77,0-.21-.1-.39-.23-.55l-3.33-3.91Z"
     fill="#fff" />
</svg>
