<svg width="64" height="64" viewBox="0 0 64 64" fill="none" xmlns="http://www.w3.org/2000/svg">
<style>
  .circle {
    animation-name: anim;
    animation-duration: 1.2s;
    animation-iteration-count: infinite;
  }
  @keyframes anim {
    from {r: 2px;}
    to {r: 6px;}
  }
</style>

<path d="M11 5C9.33799 5 8 6.35338 8 8.03443V36.862C8 38.5431 9.33799 39.8965 11 39.8965H26V45.9655H20V47.4827H17V49H47V47.4827H44V45.9655H38V39.8965H53C54.662 39.8965 56 38.5431 56 36.862V8.03443C56 6.35338 54.662 5 53 5H11ZM11 8.03443H53V36.862H11V8.03443ZM32.75 13.7716L24.5937 17.9439L32.75 22.875L41.0937 17.9439L32.75 13.7716ZM24.5937 19.4612V28.5646L32.0938 33.1164V24.0129L24.5937 19.4612ZM41.0937 19.5082L33.5937 24.0599V33.1633L41.0937 28.6116V19.5082Z" fill="#1F9CF0"/>
<rect x="37" y="36" width="22" height="22" rx="11" fill="#50BEFF"/>
<rect x="37" y="36" width="22" height="22" rx="11" stroke="#1F9CF0" stroke-width="2"/>
<circle class="circle" cx="48" cy="47" r="6" fill="white"/>
</svg>
