<svg width="24" height="24" viewBox="0 0 24 24" fill="none" xmlns="http://www.w3.org/2000/svg">
<path d="M4 22C3.46957 22 2.96101 21.7891 2.58594 21.4141C2.21086 21.039 2 20.5304 2 20V4C2 3.46957 2.21086 2.96101 2.58594 2.58594C2.96101 2.21086 3.46957 2 4 2H20C20.5304 2 21.039 2.21086 21.4141 2.58594C21.7891 2.96101 22 3.46957 22 4V20C22 20.5304 21.7891 21.039 21.4141 21.4141C21.039 21.7891 20.5304 22 20 22H4ZM4 20H20V4H4V20ZM10.5 17C10.2348 17 9.9805 16.8946 9.79297 16.707C9.60543 16.5195 9.5 16.2652 9.5 16C9.5 15.7348 9.60543 15.4805 9.79297 15.293C9.9805 15.1054 10.2348 15 10.5 15H16.5C16.7652 15 17.0195 15.1054 17.207 15.293C17.3946 15.4805 17.5 15.7348 17.5 16C17.5 16.2652 17.3946 16.5195 17.207 16.707C17.0195 16.8946 16.7652 17 16.5 17H10.5ZM6 16C6 15.8022 6.05809 15.6098 6.16797 15.4453C6.27785 15.2809 6.43446 15.1519 6.61719 15.0762C6.79991 15.0005 7.00133 14.9809 7.19531 15.0195C7.38929 15.0581 7.56718 15.1531 7.70703 15.293C7.84688 15.4328 7.94188 15.6107 7.98047 15.8047C8.01905 15.9987 7.99952 16.2001 7.92383 16.3828C7.84814 16.5655 7.71914 16.7221 7.55469 16.832C7.39024 16.9419 7.19778 17 7 17C6.73478 17 6.4805 16.8946 6.29297 16.707C6.10543 16.5195 6 16.2652 6 16ZM10.5 13C10.2348 13 9.9805 12.8946 9.79297 12.707C9.60543 12.5195 9.5 12.2652 9.5 12C9.5 11.7348 9.60543 11.4805 9.79297 11.293C9.9805 11.1054 10.2348 11 10.5 11H16.5C16.7652 11 17.0195 11.1054 17.207 11.293C17.3946 11.4805 17.5 11.7348 17.5 12C17.5 12.2652 17.3946 12.5195 17.207 12.707C17.0195 12.8946 16.7652 13 16.5 13H10.5ZM6 12C6 11.8022 6.05809 11.6098 6.16797 11.4453C6.27785 11.2809 6.43446 11.1519 6.61719 11.0762C6.79991 11.0005 7.00133 10.9809 7.19531 11.0195C7.38929 11.0581 7.56718 11.1531 7.70703 11.293C7.84688 11.4328 7.94188 11.6107 7.98047 11.8047C8.01905 11.9987 7.99952 12.2001 7.92383 12.3828C7.84814 12.5655 7.71914 12.7221 7.55469 12.832C7.39024 12.9419 7.19778 13 7 13C6.73478 13 6.4805 12.8946 6.29297 12.707C6.10543 12.5195 6 12.2652 6 12ZM10.5 9C10.2348 9 9.9805 8.89457 9.79297 8.70703C9.60543 8.5195 9.5 8.26522 9.5 8C9.5 7.73478 9.60543 7.4805 9.79297 7.29297C9.9805 7.10543 10.2348 7 10.5 7H16.5C16.7652 7 17.0195 7.10543 17.207 7.29297C17.3946 7.4805 17.5 7.73478 17.5 8C17.5 8.26522 17.3946 8.5195 17.207 8.70703C17.0195 8.89457 16.7652 9 16.5 9H10.5ZM6 8C6 7.80222 6.05809 7.60976 6.16797 7.44531C6.27785 7.28086 6.43446 7.15186 6.61719 7.07617C6.79991 7.00048 7.00133 6.98095 7.19531 7.01953C7.38929 7.05812 7.56718 7.15312 7.70703 7.29297C7.84688 7.43282 7.94188 7.61071 7.98047 7.80469C8.01905 7.99867 7.99952 8.20009 7.92383 8.38281C7.84814 8.56554 7.71914 8.72215 7.55469 8.83203C7.39024 8.94191 7.19778 9 7 9C6.73478 9 6.4805 8.89457 6.29297 8.70703C6.10543 8.5195 6 8.26522 6 8Z" fill="#8f9dc9"/>
</svg>
