<svg width="64" height="64" viewBox="0 0 64 64" fill="none" xmlns="http://www.w3.org/2000/svg">
<path d="M11 5C9.33799 5 8 6.35338 8 8.03443V36.862C8 38.5431 9.33799 39.8965 11 39.8965H26V45.9655H20V47.4827H17V49H47V47.4827H44V45.9655H38V39.8965H53C54.662 39.8965 56 38.5431 56 36.862V8.03443C56 6.35338 54.662 5 53 5H11ZM11 8.03443H53V36.862H11V8.03443ZM32.75 13.7716L24.5937 17.9439L32.75 22.875L41.0937 17.9439L32.75 13.7716ZM24.5937 19.4612V28.5646L32.0938 33.1164V24.0129L24.5937 19.4612ZM41.0937 19.5082L33.5937 24.0599V33.1633L41.0937 28.6116V19.5082Z" fill="#1F9CF0"/>
<path d="M48 59C54.6274 59 60 53.6274 60 47C60 40.3726 54.6274 35 48 35C41.3726 35 36 40.3726 36 47C36 53.6274 41.3726 59 48 59Z" fill="#1F9CF0"/>
<path d="M48 37C42.48 37 38 41.48 38 47C38 52.52 42.48 57 48 57C53.52 57 58 52.52 58 47C58 41.48 53.52 37 48 37Z" fill="#21B553"/>
<path d="M51.42 46.2299L47.36 42.8499C46.71 42.3099 45.72 42.7699 45.72 43.6199V50.3799C45.72 51.2299 46.71 51.6899 47.36 51.1499L51.42 47.7699C51.9 47.3699 51.9 46.6299 51.42 46.2299Z" fill="white"/>
</svg>
