<svg width="64" height="64" viewBox="0 0 64 64" fill="none" xmlns="http://www.w3.org/2000/svg">
<path d="M11 5C9.33799 5 8 6.35338 8 8.03443V36.862C8 38.5431 9.33799 39.8965 11 39.8965H26V45.9655H20V47.4827H17V49H47V47.4827H44V45.9655H38V39.8965H53C54.662 39.8965 56 38.5431 56 36.862V8.03443C56 6.35338 54.662 5 53 5H11ZM11 8.03443H53V36.862H11V8.03443ZM32.75 13.7716L24.5937 17.9439L32.75 22.875L41.0937 17.9439L32.75 13.7716ZM24.5937 19.4612V28.5646L32.0938 33.1164V24.0129L24.5937 19.4612ZM41.0937 19.5082L33.5937 24.0599V33.1633L41.0937 28.6116V19.5082Z" fill="#1F9CF0"/>
<path d="M48 59C54.6274 59 60 53.6274 60 47C60 40.3726 54.6274 35 48 35C41.3726 35 36 40.3726 36 47C36 53.6274 41.3726 59 48 59Z" fill="#1F9CF0"/>
<path d="M48 37C42.48 37 38 41.48 38 47C38 52.52 42.48 57 48 57C53.52 57 58 52.52 58 47C58 41.48 53.52 37 48 37Z" fill="#50BEFF"/>
<path d="M48.44 46.7V42.22C48.44 41.55 47.89 41 47.22 41C46.55 41 46 41.55 46 42.22V47.1C46 47.1 46 47.14 46 47.15C46 47.48 46.1 47.81 46.35 48.06L50.66 51.67C50.78 51.76 51 51.92 51.22 51.92C51.65 51.92 51.99 51.57 51.99 51.15C51.99 50.94 51.89 50.76 51.76 50.6L48.43 46.69L48.44 46.7Z" fill="white"/>
</svg>
