<svg width="24" height="24" viewBox="0 0 24 24" fill="none" xmlns="http://www.w3.org/2000/svg">
<path fill-rule="evenodd" clip-rule="evenodd" d="M19.7773 2C21.0046 2 22 2.99536 22 4.22266V19.7773C22 21.0046 21.0046 22 19.7773 22H4.22266C2.99536 22 2 21.0046 2 19.7773V4.22266C2 2.99536 2.99536 2 4.22266 2H19.7773ZM5.06445 19.2227H8.04688V9.59277H5.06445V19.2227ZM15.7178 9.29883C13.6743 9.29883 12.8135 10.8896 12.8135 10.8896V9.59277H9.9541V19.2227H12.8135V14.167C12.8136 12.8127 13.4376 12.0068 14.6309 12.0068C15.7277 12.0069 16.2538 12.7813 16.2539 14.167V19.2227H19.2227V13.125C19.2225 10.5457 17.76 9.29899 15.7178 9.29883ZM6.54102 4.77734C5.567 4.7776 4.77736 5.57357 4.77734 6.55469C4.77734 7.53582 5.56698 8.33178 6.54102 8.33203C7.51526 8.33203 8.30469 7.53598 8.30469 6.55469C8.30467 5.57341 7.51525 4.77734 6.54102 4.77734Z" fill="#F6F6F6"/>
</svg>
