<svg width="64" height="64" viewBox="0 0 64 64" fill="none" xmlns="http://www.w3.org/2000/svg">

<style>
  .circle {
    animation-name: anim;
    animation-duration: 1.2s;
    animation-iteration-count: infinite;
  }
  @keyframes anim {
    from {r: 2px;}
    to {r: 6px;}
  }
</style>

<rect x="4" y="4" width="38" height="31" rx="7" fill="#14AA8C"/>
<path d="M13.4004 10.125H11.7998C10.9162 10.1251 10.2002 10.8246 10.2002 11.6875V27.3125C10.2002 28.1754 10.9162 28.8749 11.7998 28.875H13.4004V32H11.7998C9.14893 31.9999 7 29.9013 7 27.3125V11.6875C7 9.09873 9.14893 7.0001 11.7998 7H13.4004V10.125Z" fill="white"/>
<path d="M34.2002 7C36.8511 7.0001 39 9.09873 39 11.6875V27.3125C39 29.9013 36.8511 31.9999 34.2002 32H32.5996V28.875H34.2002C35.0838 28.8749 35.7998 28.1754 35.7998 27.3125V11.6875C35.7998 10.8246 35.0838 10.1251 34.2002 10.125H32.5996V7H34.2002Z" fill="white"/>
<path d="M16.5996 17.9375C17.4833 17.9375 18.2002 18.6371 18.2002 19.5C18.2002 20.3629 17.4833 21.0625 16.5996 21.0625C15.7161 21.0623 15 20.3628 15 19.5C15 18.6372 15.7161 17.9377 16.5996 17.9375Z" fill="white"/>
<path d="M23 17.9375C23.8837 17.9375 24.5996 18.6371 24.5996 19.5C24.5996 20.3629 23.8837 21.0625 23 21.0625C22.1163 21.0625 21.4004 20.3629 21.4004 19.5C21.4004 18.6371 22.1163 17.9375 23 17.9375Z" fill="white"/>
<path d="M29.4004 17.9375C30.2839 17.9377 31 18.6372 31 19.5C31 20.3628 30.2839 21.0623 29.4004 21.0625C28.5167 21.0625 27.7998 20.3629 27.7998 19.5C27.7998 18.6371 28.5167 17.9375 29.4004 17.9375Z" fill="white"/>
<rect x="37" y="36" width="22" height="22" rx="11" fill="#50BEFF"/>
<rect x="37" y="36" width="22" height="22" rx="11" stroke="#14AA8C" stroke-width="2"/>
<circle class="circle" cx="48" cy="47" r="6" fill="white"/>
</svg>
