<svg width="64" height="64" viewBox="0 0 64 64" fill="none" xmlns="http://www.w3.org/2000/svg">
<path d="M20.8328 43L5 12.4319H20.8328V43Z" fill="#FF7C00"/>
<path d="M32.4437 43H20.8328L28.7492 11.3787L43 4L32.4437 43Z" fill="#FF7C00"/>
<path d="M48 59C54.6274 59 60 53.6274 60 47C60 40.3726 54.6274 35 48 35C41.3726 35 36 40.3726 36 47C36 53.6274 41.3726 59 48 59Z" fill="#FF7C00"/>
<path d="M48 37C42.48 37 38 41.48 38 47C38 52.52 42.48 57 48 57C53.52 57 58 52.52 58 47C58 41.48 53.52 37 48 37Z" fill="#50BEFF"/>
<path d="M48.44 46.7V42.22C48.44 41.55 47.89 41 47.22 41C46.55 41 46 41.55 46 42.22V47.1C46 47.1 46 47.14 46 47.15C46 47.48 46.1 47.81 46.35 48.06L50.66 51.67C50.78 51.76 51 51.92 51.22 51.92C51.65 51.92 51.99 51.57 51.99 51.15C51.99 50.94 51.89 50.76 51.76 50.6L48.43 46.69L48.44 46.7Z" fill="white"/>
</svg>
