<svg xmlns="http://www.w3.org/2000/svg" viewBox="0 0 64 64">
<path d="M22.713 57.684C22.0532 57.4451 21.3801 57.2448 20.697 57.084C16.0852 55.5769 11.8607 53.0753 8.322 49.756C8.322 49.756 5.63401 46.086 9.09401 44.816C9.55091 44.667 10.0337 44.6143 10.512 44.661L11.042 44.717L11.152 44.194C11.3002 43.4982 11.6477 42.8607 12.152 42.359C12.5108 41.998 12.9405 41.7154 13.414 41.529L13.965 41.314L13.75 40.764C13.5167 40.1281 13.4729 39.4381 13.6239 38.7778C13.775 38.1175 14.1144 37.5152 14.601 37.044L14.957 36.716L14.942 36.431C14.9047 35.6544 15.031 34.8787 15.3128 34.1541C15.5947 33.4295 16.0257 32.7722 16.578 32.225L17.034 31.762L16.534 31.352C16.4152 31.2555 16.302 31.1524 16.195 31.043C15.722 30.5669 15.3542 29.9968 15.1155 29.3696C14.8767 28.7424 14.7723 28.0721 14.809 27.402C14.873 25.9969 15.466 24.668 16.469 23.682C16.544 23.607 16.623 23.534 16.703 23.463L17.082 23.131L16.817 22.704C16.3845 21.9858 16.136 21.1718 16.0936 20.3345C16.0512 19.4971 16.2162 18.6622 16.574 17.904L16.687 17.65L16.565 17.4C16.0771 16.4091 15.6937 15.3702 15.421 14.3C14.156 9.382 15.359 4.80699 18.104 4.09999C20.228 3.54199 22.671 5.36998 24.292 8.74498L24.638 9.46599L25.226 8.92299C26.1934 8.01695 27.452 7.48516 28.776 7.42299C29.4465 7.38396 30.1177 7.48748 30.7453 7.72673C31.3729 7.96598 31.9426 8.33551 32.417 8.81099C32.9023 9.29478 33.2742 9.88016 33.506 10.525L33.652 10.925L34.083 10.91C34.3056 10.901 34.5286 10.9087 34.75 10.933L35.123 10.973L35.316 10.651C35.403 10.506 35.493 10.363 35.583 10.224C36.7498 8.33345 38.3556 6.75236 40.264 5.61497C42.056 4.62397 43.7 4.504 44.896 5.278C46.092 6.052 46.66 7.599 46.496 9.64C46.2426 11.8468 45.462 13.9603 44.22 15.802C43.934 16.244 43.62 16.683 43.287 17.102L42.994 17.471L43.288 17.839C43.9042 18.658 44.2633 19.6415 44.3197 20.6648C44.3762 21.6882 44.1274 22.7052 43.605 23.587L43.397 23.952L43.673 24.269C44.3755 25.127 44.7839 26.1879 44.8379 27.2955C44.8919 28.4031 44.5887 29.4987 43.973 30.421L43.751 30.769L44.002 31.097C44.5054 31.7754 44.8298 32.5697 44.9449 33.4066C45.0601 34.2434 44.9625 35.0958 44.661 35.885L44.595 36.067L44.649 36.252C44.8476 36.965 44.8962 37.7114 44.7917 38.4441C44.6873 39.1768 44.432 39.8799 44.042 40.509L43.891 40.758L43.997 41.03C44.3065 41.8768 44.3977 42.7879 44.2623 43.6792C44.1268 44.5705 43.7691 45.4134 43.222 46.13L43.068 46.335L43.115 46.589C43.2614 47.4629 43.1939 48.3592 42.9182 49.2012C42.6425 50.0433 42.1669 50.806 41.532 51.424C41.3948 51.561 41.2506 51.6909 41.1 51.813L40.825 52.033L40.89 52.379C41.155 53.813 40.144 56.254 39.119 57.667C37.8374 57.9953 36.5375 58.2471 35.226 58.421C34.9267 58.4154 34.6282 58.4538 34.34 58.535C33.2183 58.6485 32.0915 58.7053 30.964 58.705C28.1817 58.7122 25.4096 58.3691 22.713 57.684ZM15.583 46.601C15.584 47.0787 15.73 47.5449 16.0018 47.9377C16.2736 48.3306 16.6583 48.6316 17.105 48.801C17.147 48.817 17.191 48.827 17.234 48.841C17.2588 48.8487 17.2842 48.854 17.31 48.857C17.323 48.857 17.338 48.849 17.351 48.848C17.3971 48.8437 17.4425 48.8336 17.486 48.818C17.5835 48.794 17.6678 48.7327 17.7205 48.6472C17.7733 48.5617 17.7903 48.4589 17.768 48.361C17.7666 48.2472 17.7275 48.1372 17.657 48.048C17.351 47.6253 17.1771 47.1214 17.157 46.6C17.1739 45.9781 17.4285 45.3863 17.8684 44.9464C18.3083 44.5065 18.9001 44.2519 19.522 44.235C19.548 44.235 19.571 44.242 19.598 44.243C19.6723 43.9876 19.801 43.7512 19.9751 43.5502C20.1493 43.3491 20.3648 43.188 20.607 43.078C20.3553 42.9527 20.0782 42.8867 19.797 42.885C19.3924 42.8855 18.999 43.0185 18.6772 43.2637C18.3554 43.509 18.1228 43.853 18.015 44.243C17.989 44.243 17.966 44.235 17.939 44.235C17.3125 44.2374 16.7125 44.4883 16.2707 44.9326C15.829 45.377 15.5817 45.9784 15.583 46.605V46.601ZM21.618 44.876C21.76 44.9469 21.9163 44.9842 22.075 44.985C22.3036 44.9845 22.5257 44.9091 22.7073 44.7704C22.889 44.6317 23.0203 44.4373 23.081 44.217C23.095 44.217 23.11 44.217 23.123 44.217C23.2986 44.2173 23.4725 44.1829 23.6347 44.1159C23.797 44.0488 23.9444 43.9504 24.0686 43.8263C24.1928 43.7022 24.2913 43.5549 24.3585 43.3927C24.4256 43.2304 24.4601 43.0566 24.46 42.881C24.46 42.6106 24.3777 42.3466 24.2241 42.124C24.0705 41.9015 23.8528 41.7309 23.6 41.635C23.578 41.626 23.552 41.62 23.529 41.612C23.5145 41.6081 23.4998 41.6051 23.485 41.603C23.4777 41.6025 23.4703 41.6025 23.463 41.603C23.4371 41.6052 23.4116 41.6106 23.387 41.619C23.3321 41.6328 23.2848 41.6675 23.2553 41.7157C23.2257 41.764 23.2163 41.8219 23.229 41.877C23.2297 41.9411 23.2519 42.003 23.292 42.053C23.463 42.2932 23.56 42.5783 23.571 42.873C23.5612 43.2244 23.4171 43.5587 23.1684 43.8071C22.9198 44.0556 22.5854 44.1994 22.234 44.209C22.219 44.209 22.206 44.209 22.191 44.209C22.1497 44.3544 22.0775 44.4892 21.9793 44.6042C21.8811 44.7191 21.7592 44.8115 21.622 44.875L21.618 44.876ZM24.451 32.566C24.151 32.766 24.775 34.966 25.501 35.551C26.4386 36.5213 27.7156 37.0908 29.064 37.14C30.4983 37.0982 31.8677 36.533 32.914 35.551C33.641 34.967 34.251 32.799 33.965 32.566C33.679 32.333 32.843 34.129 32.052 34.641C31.7408 34.8293 31.3918 34.9466 31.03 34.9844C30.6682 35.0223 30.3025 34.9798 29.959 34.86V33.21C30.03 32.8598 30.194 32.5352 30.4339 32.2703C30.6737 32.0055 30.9805 31.8102 31.322 31.705C31.5692 31.6766 31.7973 31.5585 31.9632 31.3731C32.1291 31.1876 32.2212 30.9478 32.222 30.699C32.222 30.5652 32.1956 30.4328 32.1444 30.3092C32.0932 30.1856 32.0181 30.0733 31.9235 29.9788C31.8289 29.8843 31.7165 29.8093 31.5929 29.7582C31.4693 29.7071 31.3368 29.6809 31.203 29.681C31.0261 29.6811 30.8524 29.7273 30.6988 29.815C30.5452 29.9027 30.4171 30.0288 30.327 30.181C29.9668 30.2675 29.5974 30.3098 29.227 30.307C28.8382 30.3105 28.4505 30.2631 28.074 30.166C27.9838 30.0173 27.8568 29.8943 27.7053 29.8089C27.5538 29.7234 27.3829 29.6783 27.209 29.678C27.0751 29.6777 26.9426 29.7039 26.8188 29.7549C26.6951 29.8059 26.5826 29.8809 26.4879 29.9754C26.3931 30.07 26.318 30.1823 26.2667 30.306C26.2154 30.4296 26.189 30.5621 26.189 30.696C26.189 30.8299 26.2154 30.9624 26.2667 31.086C26.318 31.2097 26.3931 31.322 26.4879 31.4165C26.5826 31.5111 26.6951 31.586 26.8188 31.6371C26.9426 31.6881 27.0751 31.7143 27.209 31.714C27.228 31.714 27.245 31.714 27.266 31.714C27.5728 31.8108 27.8511 31.9813 28.0765 32.2108C28.302 32.4403 28.4677 32.7215 28.559 33.03V34.821C28.2028 34.9614 27.8192 35.0179 27.4376 34.9862C27.0561 34.9544 26.6871 34.8353 26.359 34.638C25.445 34.122 24.814 32.547 24.495 32.547C24.4793 32.5491 24.4645 32.5554 24.452 32.565L24.451 32.566ZM29.721 22.823H30.433C30.5151 22.8382 30.5887 22.8831 30.64 22.949C30.5955 23.328 30.6571 23.712 30.818 24.058C31.278 25.491 31.265 26.59 34.084 28.644C36.903 30.698 40.913 28.258 41.297 24.87C41.681 21.482 39.41 20.905 35.527 21.096C34.8537 21.1246 34.1844 21.2137 33.527 21.362H25.912C25.2546 21.2138 24.5853 21.1248 23.912 21.096C20.03 20.904 17.76 21.482 18.142 24.87C18.524 28.258 22.542 30.697 25.356 28.644C28.17 26.591 28.162 25.49 28.622 24.058C28.7681 23.7208 28.8318 23.3537 28.808 22.987C28.8644 22.9044 28.9496 22.8458 29.047 22.823H29.721ZM18.443 7.75297C17.474 8.36997 17.798 10.021 18.688 12.095C19.578 14.169 20.741 15.695 21.665 15.265C22.589 14.835 22.311 12.997 21.42 10.923C20.656 9.13999 19.72 7.623 18.86 7.623C18.7114 7.62459 18.5665 7.67039 18.443 7.75297ZM39.559 10.586C38.504 12.586 38.602 14.533 39.228 15.033C39.974 15.633 41.66 14.249 42.715 12.254C43.77 10.259 44.336 8.27698 43.046 7.80598C42.8727 7.74089 42.6892 7.70703 42.504 7.70598C41.433 7.70498 40.464 8.87397 39.559 10.585V10.586ZM18.909 24.273C18.873 24.023 18.9054 23.768 19.0025 23.5349C19.0997 23.3018 19.2581 23.0994 19.461 22.949C19.329 23.307 19.2805 23.6904 19.319 24.07C19.3432 24.6231 19.5826 25.1448 19.986 25.524C19.6862 25.4792 19.4125 25.328 19.2148 25.0982C19.0171 24.8684 18.9085 24.5751 18.909 24.272V24.273ZM31.953 23.457C31.9329 23.3149 31.9513 23.1701 32.0064 23.0376C32.0614 22.9051 32.1511 22.7899 32.266 22.704C32.1912 22.9075 32.1638 23.1253 32.186 23.341C32.2001 23.6555 32.3356 23.9523 32.564 24.169C32.3935 24.1431 32.238 24.0569 32.1257 23.9261C32.0134 23.7952 31.9517 23.6284 31.952 23.456L31.953 23.457ZM27.181 21.775H32.255C31.7599 21.9742 31.3157 22.2817 30.955 22.675C30.8909 22.5971 30.8115 22.5333 30.7217 22.4873C30.6319 22.4414 30.5336 22.4144 30.433 22.408H29.046C28.9401 22.4158 28.8371 22.4461 28.7438 22.4967C28.6506 22.5474 28.5691 22.6174 28.505 22.702C28.1413 22.294 27.6877 21.9763 27.18 21.774L27.181 21.775Z" fill="#3cafef"/>
    <circle cx="49" cy="49" r="12" fill="#3cafef" stroke-width="0" />
    <path d="M49 39C43.48 39 39 43.48 39 49C39 54.52 43.48 59 49 59C54.52 59 59 54.52 59 49C59 43.48 54.52 39 49 39Z" fill="#50BEFF"/>
    <rect x="45" y="45" width="8" height="8" rx="1" fill="white"/>
</svg>
