<svg width="64" height="64" viewBox="0 0 64 64" fill="none" xmlns="http://www.w3.org/2000/svg">
<path d="M20.8328 43L5 12.4319H20.8328V43Z" fill="#FF7C00"/>
<path d="M32.4437 43H20.8328L28.7492 11.3787L43 4L32.4437 43Z" fill="#FF7C00"/>
<path d="M48 59C54.6274 59 60 53.6274 60 47C60 40.3726 54.6274 35 48 35C41.3726 35 36 40.3726 36 47C36 53.6274 41.3726 59 48 59Z" fill="#FF7C00"/>
<path d="M48 37C42.48 37 38 41.48 38 47C38 52.52 42.48 57 48 57C53.52 57 58 52.52 58 47C58 41.48 53.52 37 48 37Z" fill="#50BEFF"/>
<path d="M51 43H45C44.4477 43 44 43.4477 44 44V50C44 50.5523 44.4477 51 45 51H51C51.5523 51 52 50.5523 52 50V44C52 43.4477 51.5523 43 51 43Z" fill="white"/>
</svg>
