<?xml version="1.0" encoding="UTF-8" standalone="no"?>
<svg
   viewBox="0 0 64 64"
   version="1.1"
   id="svg26"
   sodipodi:docname="ico-containerlaunch--active.svg"
   inkscape:version="1.2.2 (b0a8486541, 2022-12-01)"
   xmlns:inkscape="http://www.inkscape.org/namespaces/inkscape"
   xmlns:sodipodi="http://sodipodi.sourceforge.net/DTD/sodipodi-0.dtd"
   xmlns="http://www.w3.org/2000/svg"
   xmlns:svg="http://www.w3.org/2000/svg">
  <defs
     id="defs30" />
  <sodipodi:namedview
     id="namedview28"
     pagecolor="#ffffff"
     bordercolor="#666666"
     borderopacity="1.0"
     inkscape:showpageshadow="2"
     inkscape:pageopacity="0.0"
     inkscape:pagecheckerboard="0"
     inkscape:deskcolor="#d1d1d1"
     showgrid="false"
     inkscape:zoom="6.546875"
     inkscape:cx="90.119332"
     inkscape:cy="35.28401"
     inkscape:window-width="1920"
     inkscape:window-height="1008"
     inkscape:window-x="0"
     inkscape:window-y="216"
     inkscape:window-maximized="1"
     inkscape:current-layer="svg26" />
  <g
     id="g1482"
     transform="matrix(0.14598555,5.7002388e-4,-5.7002388e-4,0.14598555,-6.621578,-4.2267893)">
    <path
       stroke="#066da5"
       stroke-width="38"
       d="m 296,226 h 42 m -92,0 h 42 m -91,0 h 42 m -91,0 h 41 m -91,0 h 42 m 8,-46 h 41 m 8,0 h 42 m 7,0 h 42 m -42.10933,-73.99979 h 42"
       id="path57"
       sodipodi:nodetypes="cccccccccccccccccc" />
    <path
       fill="#066da5"
       d="m 472,228 c 0,0 -18,-17 -55,-11 -4,-29 -35,-46 -35,-46 0,0 -29,35 -8,74 -6,3 -16,7 -31,7 H 68 c -5,19 -5,145 133,145 99,0 173,-46 208,-130 52,4 63,-39 63,-39"
       id="path59" />
    <path
       style="display:inline;fill:none;fill-rule:evenodd;stroke:#066da5;stroke-width:2.80892;stroke-linecap:butt;stroke-linejoin:miter;stroke-dasharray:none;stroke-opacity:1"
       d="m 250.20421,129.57238 0.19994,9.10965"
       id="path1331"
       inkscape:connector-type="polyline"
       inkscape:connector-curvature="0" />
    <path
       style="display:inline;fill:none;fill-rule:evenodd;stroke:#066da5;stroke-width:2.80892;stroke-linecap:butt;stroke-linejoin:miter;stroke-dasharray:none;stroke-opacity:1"
       d="m 258.53076,132.56224 0.19994,9.10965"
       id="path1331-3"
       inkscape:connector-type="polyline"
       inkscape:connector-curvature="0" />
    <path
       style="display:inline;fill:none;fill-rule:evenodd;stroke:#066da5;stroke-width:2.80892;stroke-linecap:butt;stroke-linejoin:miter;stroke-dasharray:none;stroke-opacity:1"
       d="m 266.86881,138.49593 0.19994,9.10965"
       id="path1331-6"
       inkscape:connector-type="polyline"
       inkscape:connector-curvature="0" />
    <path
       style="display:inline;fill:none;fill-rule:evenodd;stroke:#066da5;stroke-width:2.80892;stroke-linecap:butt;stroke-linejoin:miter;stroke-dasharray:none;stroke-opacity:1"
       d="m 275.16058,132.57712 0.19994,9.10965"
       id="path1331-7"
       inkscape:connector-type="polyline"
       inkscape:connector-curvature="0" />
    <path
       style="display:inline;fill:none;fill-rule:evenodd;stroke:#066da5;stroke-width:2.80892;stroke-linecap:butt;stroke-linejoin:miter;stroke-dasharray:none;stroke-opacity:1"
       d="m 283.46219,129.17971 0.19994,9.10965"
       id="path1331-62"
       inkscape:connector-type="polyline"
       inkscape:connector-curvature="0" />
  </g>
  <circle
     cx="49"
     cy="49"
     r="12"
     fill="#066da5"
     id="circle20" />
  <path
     d="m49,39c-5.52,0-10,4.48-10,10s4.48,10,10,10,10-4.48,10-10-4.48-10-10-10Z"
     fill="#21b553"
     id="path22" />
  <path
     d="m52.42,48.23l-4.06-3.38c-.65-.54-1.64-.08-1.64.77v6.76c0,.85.99,1.31,1.64.77l4.06-3.38c.48-.4.48-1.14,0-1.54Z"
     fill="#fff"
     id="path24" />
</svg>
